<!DOCTYPE svg PUBLIC "-//W3C//DTD SVG 1.1//EN" "http://www.w3.org/Graphics/SVG/1.1/DTD/svg11.dtd">
<!-- Uploaded to: SVG Repo, www.svgrepo.com, Transformed by: SVG Repo Mixer Tools -->
<svg version="1.1" id="Icons" xmlns="http://www.w3.org/2000/svg" xmlns:xlink="http://www.w3.org/1999/xlink" viewBox="0 0 32 32" xml:space="preserve" width="800px" height="800px" fill="#000000">
<g id="SVGRepo_bgCarrier" stroke-width="0"/>
<g id="SVGRepo_tracerCarrier" stroke-linecap="round" stroke-linejoin="round"/>
<g id="SVGRepo_iconCarrier"> <style type="text/css"> .st0{fill:none;stroke:#000000;stroke-width:2;stroke-linecap:round;stroke-linejoin:round;stroke-miterlimit:10;} </style> <path class="st0" d="M11,13H5c-1.1,0-2-0.9-2-2V5c0-1.1,0.9-2,2-2h6c1.1,0,2,0.9,2,2v6C13,12.1,12.1,13,11,13z"/> <path class="st0" d="M11,29H5c-1.1,0-2-0.9-2-2v-6c0-1.1,0.9-2,2-2h6c1.1,0,2,0.9,2,2v6C13,28.1,12.1,29,11,29z"/> <line class="st0" x1="17" y1="5" x2="29" y2="5"/> <line class="st0" x1="17" y1="9" x2="24" y2="9"/> <line class="st0" x1="17" y1="21" x2="29" y2="21"/> <line class="st0" x1="17" y1="25" x2="24" y2="25"/> <polyline class="st0" points="6,7 8,9 11,6 "/> </g>
</svg>